<svg width="679" height="394" viewBox="0 0 679 394" fill="none" xmlns="http://www.w3.org/2000/svg">
<path d="M74.5291 198.818C116.299 188.105 203.088 175.346 241.595 155.913C278.489 137.3 338.93 78.9534 369.91 51.5517C392.599 31.4553 419.151 14.6811 450.607 6.62004C548.016 -18.3805 647.285 40.4728 672.345 138.051C697.406 235.629 638.739 334.987 541.331 359.987C501.245 370.297 463.443 357.021 425.464 351.428C343.18 339.264 293.282 338.064 232.039 353.055C170.796 368.045 153.225 382.48 123.571 390.078C70.8205 403.593 17.1019 371.735 3.51916 318.958C-9.96333 266.151 21.7939 212.384 74.5291 198.818Z" fill="url(#paint0_linear)"/>
<defs>
<linearGradient id="paint0_linear" x1="343.62" y1="334.338" x2="328.459" y2="-14.4511" gradientUnits="userSpaceOnUse">
<stop stop-color="#009566"/>
<stop offset="0.9951" stop-color="#9FD084"/>
</linearGradient>
</defs>
</svg>